<?xml version="1.0" encoding="UTF-8" ?>
<!DOCTYPE svg PUBLIC "-//W3C//DTD SVG 1.1//EN" "http://www.w3.org/Graphics/SVG/1.1/DTD/svg11.dtd">
<svg width="969pt" height="186pt" viewBox="0 0 969 186" version="1.1" xmlns="http://www.w3.org/2000/svg">
<g id="#000000ff">
<path fill="#000000" opacity="1.00" d=" M 383.00 0.00 L 428.94 0.00 C 428.94 16.93 428.94 33.86 428.94 50.79 C 446.92 44.28 467.62 45.60 484.60 54.41 C 508.33 66.16 523.72 92.54 522.25 118.99 C 521.68 138.57 512.32 157.73 497.15 170.14 C 485.74 179.56 471.31 185.10 456.56 186.00 L 447.77 186.00 C 430.67 184.76 414.11 177.14 402.27 164.71 C 390.33 152.29 383.14 135.30 383.01 118.03 C 382.98 78.69 383.01 39.34 383.00 0.00 M 447.40 92.48 C 436.54 95.48 427.68 106.40 428.98 117.94 C 428.03 133.54 445.30 146.45 460.04 142.07 C 468.97 140.27 476.52 132.94 478.82 124.17 C 483.54 110.16 472.78 93.50 458.07 91.99 C 454.52 92.14 450.86 91.55 447.40 92.48 Z" />
<path fill="#000000" opacity="1.00" d=" M 536.00 0.00 L 581.94 0.00 C 581.94 16.93 581.94 33.86 581.94 50.79 C 599.70 44.36 620.10 45.57 636.97 54.08 C 661.03 65.69 676.73 92.28 675.25 118.97 C 674.69 138.56 665.33 157.72 650.15 170.14 C 638.74 179.56 624.31 185.10 609.56 186.00 L 600.74 186.00 C 583.66 184.75 567.11 177.14 555.28 164.72 C 543.32 152.29 536.14 135.29 536.01 118.01 C 535.98 78.67 536.01 39.34 536.00 0.00 M 599.28 90.31 C 591.62 92.05 584.91 97.47 581.66 104.62 C 578.50 111.35 578.51 119.40 581.79 126.09 C 585.25 133.63 592.65 139.15 600.86 140.33 C 615.23 143.18 630.50 130.71 630.04 115.94 C 630.82 106.08 624.60 96.39 615.75 92.25 C 610.70 89.57 604.79 89.62 599.28 90.31 Z" />
<path fill="#000000" opacity="1.00" d=" M 689.00 0.00 L 735.44 0.00 C 735.44 62.00 735.44 124.00 735.44 186.00 L 689.00 186.00 C 689.00 124.00 689.00 62.00 689.00 0.00 Z" />
<path fill="#000000" opacity="1.00" d=" M 0.29 47.01 C 77.03 47.00 153.77 46.98 230.51 47.02 C 230.49 93.35 230.50 139.67 230.51 186.00 L 230.11 186.00 C 204.60 162.98 179.21 139.82 153.71 116.79 C 153.68 139.86 153.69 162.93 153.70 186.00 L 153.62 186.00 C 102.47 139.72 51.39 93.35 0.29 47.01 Z" />
<path fill="#000000" opacity="1.00" d=" M 275.67 53.61 C 288.46 47.41 303.19 45.67 317.17 47.90 C 334.58 50.73 350.81 60.42 361.38 74.56 C 370.35 86.38 375.30 101.11 375.35 115.96 C 350.54 115.98 325.73 115.94 300.92 115.97 C 315.39 135.47 329.93 154.91 344.42 174.39 C 334.08 181.27 321.92 185.22 309.54 186.00 L 300.77 186.00 C 288.66 185.04 276.78 181.12 266.69 174.31 C 251.21 164.09 240.34 147.31 237.09 129.08 C 234.53 114.56 236.33 99.17 242.94 85.93 C 249.74 71.84 261.51 60.26 275.67 53.61 Z" />
<path fill="#000000" opacity="1.00" d=" M 782.31 53.31 C 794.96 47.35 809.43 45.72 823.19 47.90 C 840.57 50.73 856.79 60.40 867.35 74.52 C 876.34 86.35 881.30 101.10 881.35 115.95 C 856.54 115.98 831.73 115.94 806.92 115.98 C 821.39 135.46 835.92 154.91 850.42 174.38 C 840.09 181.27 827.92 185.21 815.55 186.00 L 806.75 186.00 C 795.61 185.09 784.66 181.76 775.14 175.86 C 758.40 165.82 746.50 148.28 743.09 129.08 C 740.53 114.57 742.32 99.18 748.93 85.95 C 755.83 71.63 767.86 59.91 782.31 53.31 Z" />
</g>
<g id="#dd0000ff">
<path fill="#dd0000" opacity="1.00" d=" M 931.32 145.35 C 942.07 138.98 957.57 141.73 964.73 152.23 C 969.86 159.44 969.54 170.08 963.87 176.91 C 959.69 182.21 953.24 185.41 946.56 186.00 L 941.71 186.00 C 930.91 185.07 920.28 176.33 920.00 164.99 C 919.36 156.86 924.41 149.26 931.32 145.35 Z" />
</g>
</svg>
